
                <svg xmlns="http://www.w3.org/2000/svg" width="20" height="20">
                    <g><path d="m12.5 2c-2.13972 0 -3.85417 1.5351 -4.30664 3.541c-0.63415 -0.8727 -1.53397 -1.541 -2.69336 -1.541c-1.92708 0 -3.5 1.573 -3.5 3.5c0 1.9271 1.57294 3.5 3.5 3.5h7c2.47937 0 4.5 -2.0207 4.5 -4.5c0 -2.4793 -2.02063 -4.5 -4.5 -4.5zm0 3c0.82251 0 1.5 0.6775 1.5 1.5c0 0.8225 -0.67749 1.5 -1.5 1.5c-0.82251 0 -1.5 -0.6775 -1.5 -1.5c0 -0.8225 0.67749 -1.5 1.5 -1.5zm-7 1c0.82251 0 1.5 0.6775 1.5 1.5c0 0.8225 -0.67749 1.5 -1.5 1.5c-0.82251 0 -1.5 -0.6775 -1.5 -1.5c0 -0.8225 0.67749 -1.5 1.5 -1.5zm7 0c-0.28208 0 -0.5 0.2179 -0.5 0.5c0 0.2821 0.21792 0.5 0.5 0.5c0.28208 0 0.5 -0.2179 0.5 -0.5c0 -0.2821 -0.21792 -0.5 -0.5 -0.5zm-3.94922 0.998c0.00008 0.0007 -0.00008 0 0 0H8.5a0.50005006 0.50005006 0 0 0 0.0508 0zm-3.05078 0c-0.28208 0 -0.5 0.2179 -0.5 0.5c0 0.2821 0.21792 0.5 0.5 0.5c0.28208 0 0.5 -0.2179 0.5 -0.5c0 -0.2821 -0.21792 -0.5 -0.5 -0.5z" /><path d="M4.492189999999994 11.992199999999912A0.50005 0.50005 0 0 0 4 12.5v1v1a0.50005 0.50005 0 0 0 1 0v-0.5h1v1.5c0.00003 0.1326 0.0527 0.2597 0.14648 0.3535l1 1c0.0937 0.094 0.22092 0.1465 0.35352 0.1465h5c0.27613 0 0.49997 -0.2239 0.5 -0.5v-4c-0.00003 -0.2761 -0.22387 -0.5 -0.5 -0.5h-6c-0.27613 0 -0.49997 0.2239 -0.5 0.5v0.5h-1v-0.5a0.50005 0.50005 0 0 0 -0.50781 -0.5078zm11.99219 0.01c-0.10819 0 -0.21237 0.042 -0.29688 0.1094l-2.5 2c-0.25044 0.2002 -0.25044 0.581 0 0.7812l2.5 2c0.32747 0.2621 0.81265 0.029 0.8125 -0.3906v-4c0.00011 -0.2823 -0.23341 -0.5088 -0.51562 -0.5z" /></g>
                </svg>
            