<svg xmlns="http://www.w3.org/2000/svg" width="20" height="20"><path d="m7.484375 3c-0.752 0 -1.4538175 0.239 -2.0234375 0.64453C4.5752675 4.275080000000003 4 5.315139999999985 4 6.484379999999987V9.5c0.00003 0.27537 0.2226769 0.4989 0.4980469 0.5l4.0097651 0.008c0.27613 -0.00003 0.49997 -0.22387 0.5 -0.5L9 3.535160000000019v-0.002v-0.0352C8.999 3.222719999999981 8.77534 3.000029999999981 8.5 3zM10 3v1h1.515625C12.900145 4 14 5.0998500000000035 14 6.484379999999987v8.03124C14 15.900140000000022 12.900145 17 11.515625 17h-4.03125C6.099855 17 5 15.900140000000022 5 14.515620000000013V11H4v3.51562C4 16.436849999999993 5.5631450000000005 18 7.484375 18h4.03125C13.436855000000001 18 15 16.436860000000024 15 14.515620000000013v-8.03124C15 4.563150000000007 13.436855000000001 3 11.515625 3z" /></svg>