<svg xmlns="http://www.w3.org/2000/svg" width="20" height="20"><path d="m10.5 5c-3.27784 -0.00094 -5.036 2.7211 -6.36328 4.16211c-0.17644 0.19146 -0.17644 0.48627 0 0.67773c1.3275 1.44124 3.08593 4.15993 6.36328 4.16211c3.27801 0.002 5.03608 -2.72118 6.36328 -4.16211c0.17644 -0.19146 0.17644 -0.48627 0 -0.67773C15.535869999999989 7.720959999999991 13.77755000000002 5.000940000000014 10.5 5zm0 1a3.4999952 3.4999933 0 0 1 3.5 3.5a3.4999952 3.4999933 0 0 1 -3.5 3.5a3.4999952 3.4999933 0 0 1 -3.5 -3.5a3.4999952 3.4999933 0 0 1 3.5 -3.5zm0 2a1.4999952 1.4999944 0 0 0 -1.5 1.5a1.4999952 1.4999944 0 0 0 1.5 1.5a1.4999952 1.4999944 0 0 0 1.5 -1.5a1.4999952 1.4999944 0 0 0 -1.5 -1.5z" /></svg>