<svg>
    <path d="m 433.5,433 c -3.27784,-9.4e-4 -5.036,2.7211 -6.36328,4.16211 -0.17644,0.19146 -0.17644,0.48627 0,0.67773 1.3275,1.44124 3.08593,4.15993 6.36328,4.16211 3.27801,0.002 5.03608,-2.72118 6.36328,-4.16211 0.17644,-0.19146 0.17644,-0.48627 0,-0.67773 C 438.53587,435.72096 436.77755,433.00094 433.5,433 Z m 0,1 a 3.4999952,3.4999933 0 0 1 3.5,3.5 3.4999952,3.4999933 0 0 1 -3.5,3.5 3.4999952,3.4999933 0 0 1 -3.5,-3.5 3.4999952,3.4999933 0 0 1 3.5,-3.5 z m 0,2 a 1.4999952,1.4999944 0 0 0 -1.5,1.5 1.4999952,1.4999944 0 0 0 1.5,1.5 1.4999952,1.4999944 0 0 0 1.5,-1.5 1.4999952,1.4999944 0 0 0 -1.5,-1.5 z" />
</svg>