<svg xmlns="http://www.w3.org/2000/svg">
    <g transform="translate(477,-1375)">
        <path transform="translate(42,-42)" d="m -377.5,1847 c -2.13972,0 -3.85417,1.5351 -4.30664,3.541 -0.63415,-0.8727 -1.53397,-1.541 -2.69336,-1.541 -1.92708,0 -3.5,1.573 -3.5,3.5 0,1.9271 1.57294,3.5 3.5,3.5 h 7 c 2.47937,0 4.5,-2.0207 4.5,-4.5 0,-2.4793 -2.02063,-4.5 -4.5,-4.5 z m 0,3 c 0.82251,0 1.5,0.6775 1.5,1.5 0,0.8225 -0.67749,1.5 -1.5,1.5 -0.82251,0 -1.5,-0.6775 -1.5,-1.5 0,-0.8225 0.67749,-1.5 1.5,-1.5 z m -7,1 c 0.82251,0 1.5,0.6775 1.5,1.5 0,0.8225 -0.67749,1.5 -1.5,1.5 -0.82251,0 -1.5,-0.6775 -1.5,-1.5 0,-0.8225 0.67749,-1.5 1.5,-1.5 z m 7,0 c -0.28208,0 -0.5,0.2179 -0.5,0.5 0,0.2821 0.21792,0.5 0.5,0.5 0.28208,0 0.5,-0.2179 0.5,-0.5 0,-0.2821 -0.21792,-0.5 -0.5,-0.5 z m -3.94922,0.998 c 8e-5,7e-4 -8e-5,0 0,0 H -381.5 a 0.50005006,0.50005006 0 0 0 0.0508,0 z m -3.05078,0 c -0.28208,0 -0.5,0.2179 -0.5,0.5 0,0.2821 0.21792,0.5 0.5,0.5 0.28208,0 0.5,-0.2179 0.5,-0.5 0,-0.2821 -0.21792,-0.5 -0.5,-0.5 z" />
        <path transform="translate(42,-42)" d="M -385.50781,1856.9922 A 0.50005,0.50005 0 0 0 -386,1857.5 v 1 1 a 0.50005,0.50005 0 0 0 1,0 v -0.5 h 1 v 1.5 c 3e-5,0.1326 0.0527,0.2597 0.14648,0.3535 l 1,1 c 0.0937,0.094 0.22092,0.1465 0.35352,0.1465 h 5 c 0.27613,0 0.49997,-0.2239 0.5,-0.5 v -4 c -3e-5,-0.2761 -0.22387,-0.5 -0.5,-0.5 h -6 c -0.27613,0 -0.49997,0.2239 -0.5,0.5 v 0.5 h -1 v -0.5 a 0.50005,0.50005 0 0 0 -0.50781,-0.5078 z m 11.99219,0.01 c -0.10819,0 -0.21237,0.042 -0.29688,0.1094 l -2.5,2 c -0.25044,0.2002 -0.25044,0.581 0,0.7812 l 2.5,2 c 0.32747,0.2621 0.81265,0.029 0.8125,-0.3906 v -4 c 1.1e-4,-0.2823 -0.23341,-0.5088 -0.51562,-0.5 z" />
    </g>
</svg>