<svg xmlns="http://www.w3.org/2000/svg">
    <path d="m 10.484375,452 c -0.752,0 -1.4538175,0.239 -2.0234375,0.64453 C 7.5752675,453.27508 7,454.31514 7,455.48438 V 458.5 c 3e-5,0.27537 0.2226769,0.4989 0.4980469,0.5 l 4.0097651,0.008 c 0.27613,-3e-5 0.49997,-0.22387 0.5,-0.5 L 12,452.53516 v -0.002 -0.0352 C 11.999,452.22272 11.77534,452.00003 11.5,452 Z M 13,452 v 1 h 1.515625 C 15.900145,453 17,454.09985 17,455.48438 v 8.03124 C 17,464.90014 15.900145,466 14.515625,466 h -4.03125 C 9.099855,466 8,464.90014 8,463.51562 V 460 H 7 v 3.51562 C 7,465.43685 8.563145,467 10.484375,467 h 4.03125 C 16.436855,467 18,465.43686 18,463.51562 v -8.03124 C 18,453.56315 16.436855,452 14.515625,452 Z" />
</svg>